# xmcd
#
# Track frame offsets:
#	150
#	35250
#	53252
#	89140
#	122916
#	163454
#	181199
#	206469
#
# Disc length: 3113 seconds
# Revision: 0
# Processed by: cddbd v1.5.2PL0 Copyright (c) Steve Scherf et al.
# Submitted via: dBpowerAMP V12.0
#
DISCID=680c2708
DTITLE=Allman Brothers Band - Instant Live - Jones Beach Wantagh, NY 8-24-04
DYEAR=2004
DGENRE=Rock
TTITLE0=I Walked on Spinded Splinters
TTITLE1=Trouble No More
TTITLE2=Ain't Wastin' Time No More
TTITLE3=Woman Across No River
TTITLE4=You Don't Love Me
TTITLE5=Midinight Rider
TTITLE6=Stand Back
TTITLE7=Dreams to Remember
EXTD=
EXTT0=
EXTT1=
EXTT2=
EXTT3=
EXTT4=
EXTT5=
EXTT6=
EXTT7=
PLAYORDER=
